<?xml version="1.0" encoding="UTF-8"?>
<svg id="Layer_1" xmlns="http://www.w3.org/2000/svg" version="1.1" viewBox="0 0 500 500">
  <!-- Generator: Adobe Illustrator 29.3.1, SVG Export Plug-In . SVG Version: 2.1.0 Build 151)  -->
  <defs>
    <style>
      .st0 {
        fill: #333;
      }

      .st1 {
        display: none;
      }
    </style>
  </defs>
  <g class="st1">
    <path class="st0" d="M81.52,298.39c5.35.78,11.66,10.37,13.55,13.55-3.09-1.83-12.75-8.05-13.55-13.55Z"/>
    <path class="st0" d="M76.3,270.9c9.3,4.26,25.52,25.05,27.12,27.12-2.67-2.07-22.89-17.87-27.12-27.12Z"/>
    <path class="st0" d="M71.08,243.41c12.41,7.45,36.89,36.27,40.35,40.35-3.72-3.15-32.86-27.86-40.35-40.35Z"/>
    <path class="st0" d="M65.86,215.92c10.63,7.28,19.54,16.33,28.07,25.85,8.79,9.2,17.42,18.54,25.85,28.07-9.53-8.42-18.87-17.06-28.07-25.85-9.51-8.54-18.57-17.44-25.85-28.07Z"/>
    <path class="st0" d="M60.99,188.77c12.79,9.43,23.84,20.63,34.51,32.28,10.93,11.34,21.71,22.83,32.28,34.51-11.68-10.57-23.17-21.35-34.51-32.28-11.65-10.68-22.85-21.73-32.28-34.51Z"/>
    <path class="st0" d="M55.77,161.28c15.05,11.7,28.37,25.16,41.3,39.07,11.6,12.06,27.94,29.11,39.07,41.3-12.12-11.07-29.3-27.52-41.3-39.07-13.91-12.93-27.38-26.25-39.07-41.3Z"/>
    <path class="st0" d="M52.98,136.22c16.85,13.5,31.96,28.76,46.69,44.47,13.19,13.64,31.77,32.94,44.47,46.69-13.68-12.62-33.11-31.33-46.69-44.47-15.7-14.73-30.97-29.84-44.47-46.69Z"/>
    <path class="st0" d="M70.04,131c15.4,12.04,29.06,25.86,42.34,40.12,11.91,12.36,28.68,29.85,40.12,42.34-12.42-11.37-30.03-28.26-42.34-40.12-14.26-13.28-28.07-26.94-40.12-42.34Z"/>
    <path class="st0" d="M86.74,125.43c13.95,10.59,26.16,22.96,37.99,35.76,12.09,12.5,24.03,25.15,35.76,37.99-12.84-11.73-25.49-23.67-37.99-35.76-12.81-11.83-25.17-24.04-35.76-37.99Z"/>
    <path class="st0" d="M103.77,120.19c12.44,9.08,23.14,19.93,33.47,31.24,10.58,11,21.02,22.13,31.24,33.47-11.33-10.22-22.47-20.66-33.47-31.24-11.31-10.33-22.16-21.03-31.24-33.47Z"/>
    <path class="st0" d="M120.82,114.97c10.98,7.63,20.23,17.03,29.12,26.89,9.13,9.55,18.12,19.23,26.89,29.12-9.88-8.77-19.57-17.76-29.12-26.89-9.86-8.88-19.26-18.14-26.89-29.12Z"/>
    <path class="st0" d="M137.53,109.4c9.52,6.17,17.33,14.12,24.77,22.54,7.68,8.1,15.22,16.34,22.54,24.77-8.43-7.32-16.67-14.86-24.77-22.54-8.42-7.44-16.37-15.24-22.54-24.77Z"/>
    <path class="st0" d="M154.58,104.18c12.61,7.64,37.6,36.98,41.12,41.12-3.77-3.21-33.44-28.43-41.12-41.12Z"/>
    <path class="st0" d="M171.28,98.61c10,4.95,28.11,27.64,29.91,29.91-2.91-2.31-24.99-19.97-29.91-29.91Z"/>
    <path class="st0" d="M188.34,93.39c8.11,3.1,21.09,20.54,22.59,22.59-1.5-1.1-19.44-14.35-22.59-22.59Z"/>
    <path class="st0" d="M205.04,87.83c5.6,1.02,12.54,11.26,14.61,14.61-3.26-2.01-13.57-8.94-14.61-14.61Z"/>
    <path class="st0" d="M222.09,82.6c3.77-.65,5.46,2.28,7.16,7.16-3.23-1.12-7.79-3.55-7.16-7.16Z"/>
    <path class="st0" d="M393.11,322.31c.99-5.57,11.15-12.42,14.44-14.44-1.98,3.24-8.81,13.45-14.44,14.44Z"/>
    <path class="st0" d="M384.76,308.39c4.39-9.44,25.57-26.04,27.66-27.67-2.17,2.79-18.3,23.31-27.66,27.67Z"/>
    <path class="st0" d="M376.75,294.13c7.49-12.46,36.45-37.07,40.54-40.54-3.17,3.73-28,33.01-40.54,40.54Z"/>
    <path class="st0" d="M368.4,280.2c7.25-10.61,16.28-19.48,25.77-28,9.17-8.76,18.49-17.37,28-25.77-8.39,9.51-17.01,18.82-25.77,28-8.51,9.49-17.39,18.52-28,25.77Z"/>
    <path class="st0" d="M360.4,265.94c9.35-12.7,20.46-23.67,32.03-34.26,11.26-10.85,22.66-21.54,34.26-32.03-10.49,11.6-21.19,23-32.03,34.26-10.59,11.57-21.56,22.69-34.26,32.03Z"/>
    <path class="st0" d="M352.39,251.67c11.5-14.85,24.76-27.96,38.47-40.7,11.88-11.42,28.69-27.52,40.7-38.47-10.89,11.95-27.1,28.87-38.47,40.7-12.73,13.71-25.85,26.98-40.7,38.47Z"/>
    <path class="st0" d="M344.15,237.63c13.65-17.01,29.07-32.27,44.93-47.16,13.78-13.32,33.27-32.1,47.16-44.93-12.76,13.81-31.66,33.44-44.93,47.16-14.88,15.86-30.15,31.28-47.16,44.93Z"/>
    <path class="st0" d="M336.15,223.37c12.25-15.61,26.27-29.47,40.73-42.96,12.55-12.09,30.29-29.12,42.96-40.73-11.55,12.6-28.7,30.47-40.73,42.96-13.49,14.46-27.35,28.48-42.96,40.73Z"/>
    <path class="st0" d="M327.8,209.45c10.86-14.21,23.48-26.69,36.56-38.78,12.77-12.35,25.68-24.56,38.78-36.56-12,13.11-24.2,26.02-36.56,38.78-12.1,13.07-24.57,25.7-38.78,36.56Z"/>
    <path class="st0" d="M319.44,195.53c9.4-12.76,20.58-23.78,32.21-34.43,11.32-10.91,22.78-21.66,34.43-32.21-10.55,11.66-21.3,23.12-32.21,34.43-10.65,11.63-21.68,22.8-34.43,32.21Z"/>
    <path class="st0" d="M311.44,181.26c7.89-11.25,17.56-20.76,27.68-29.91,9.81-9.4,19.76-18.64,29.91-27.69-9.03,10.15-18.29,20.1-27.68,29.91-9.15,10.12-18.66,19.79-29.91,27.68Z"/>
    <path class="st0" d="M303.43,166.99c6.38-9.73,14.54-17.74,23.16-25.39,8.3-7.89,16.75-15.63,25.39-23.16-7.52,8.64-15.27,17.08-23.16,25.39-7.65,8.62-15.65,16.78-25.39,23.16Z"/>
    <path class="st0" d="M295.08,153.07c4.93-8.27,11.62-14.83,18.81-21.04,6.86-6.44,13.85-12.73,21.04-18.81-6.07,7.19-12.37,14.18-18.81,21.04-6.2,7.19-12.77,13.88-21.04,18.81Z"/>
    <path class="st0" d="M287.08,138.8c5.18-10.23,28.52-28.98,30.8-30.8-2.36,2.96-20.63,25.65-30.8,30.8Z"/>
    <path class="st0" d="M278.73,124.88c3.08-8.12,20.63-21.12,22.45-22.45-1.1,1.5-14.25,19.34-22.45,22.45Z"/>
    <path class="st0" d="M270.72,110.61c.75-5.34,10.34-11.59,13.4-13.4-1.79,3.05-8.01,12.64-13.4,13.4Z"/>
    <path class="st0" d="M262.72,96.34c-.78-3.66,2.02-5.16,6.58-6.58-2.13,6.92-4.45,7.03-6.58,6.58Z"/>
    <path class="st0" d="M410.28,123.79c-.2-.96-.12-1.93,2.8-2.81-.75,2.44-1.7,2.74-2.8,2.81Z"/>
    <path class="st0" d="M393.23,118.57c-.29-2.68,1.61-4.21,5.94-5.94-1.66,4.19-3.29,6.22-5.94,5.94Z"/>
    <path class="st0" d="M376.17,113.35c.25-3.53,4.66-6.49,8.72-8.72-2.12,3.9-5.14,8.47-8.72,8.72Z"/>
    <path class="st0" d="M359.47,107.78c.79-4.12,6.45-8.2,11.15-11.16-1.6,2.55-6.89,10.34-11.15,11.16Z"/>
    <path class="st0" d="M342.07,102.91c1.62-5.09,11.6-12.5,14.63-14.64-2.22,3.16-9.56,13.02-14.63,14.64Z"/>
    <path class="st0" d="M325.36,97.34c2.36-6.11,15.51-15.92,17.07-17.07-1.32,1.78-10.95,14.71-17.07,17.07Z"/>
    <path class="st0" d="M308.31,92.12c2.08-4.57,5.47-7.89,9.27-10.94,3.51-3.22,7.14-6.32,10.94-9.27-2.94,3.79-6.05,7.42-9.27,10.94-3.05,3.8-6.37,7.19-10.94,9.27Z"/>
    <path class="st0" d="M291.25,86.91c2.54-5.04,6.41-8.82,10.66-12.33,3.99-3.68,8.09-7.25,12.33-10.66-3.4,4.24-6.98,8.34-10.66,12.33-3.51,4.25-7.29,8.12-12.33,10.66Z"/>
    <path class="st0" d="M274.2,81.69c3.07-5.57,7.46-9.87,12.23-13.9,4.52-4.21,9.13-8.29,13.89-12.23-3.93,4.76-8.02,9.38-12.22,13.9-4.03,4.77-8.33,9.16-13.9,12.23Z"/>
    <path class="st0" d="M257.14,76.47c5.26-8.99,26.04-26.49,28.9-28.91-2.27,2.7-19.88,23.63-28.9,28.91Z"/>
    <path class="st0" d="M249.66,61.68c3.02-6.17,10.33-12.71,22.12-22.12-1.68,2.11-14.77,18.52-22.12,22.12Z"/>
    <path class="st0" d="M249.66,39.41c.14-3.39,4.24-6.12,8.2-8.2-1.97,3.76-4.75,8.06-8.2,8.2Z"/>
    <path class="st0" d="M61.39,118.4c3.06.07,5.18,2.6,7.88,7.88-3.7-1.88-7.81-4.51-7.88-7.88Z"/>
    <path class="st0" d="M75.31,110.05c3.58.28,6.62,4.81,8.86,8.86-3.93-2.16-8.58-5.25-8.86-8.86Z"/>
    <path class="st0" d="M89.58,102.05c4.06.73,8.03,6.27,10.91,10.91-2.53-1.57-10.15-6.71-10.91-10.91Z"/>
    <path class="st0" d="M103.85,94.04c4.18.84,8.38,6.64,11.38,11.38-2.55-1.61-10.48-6.91-11.38-11.38Z"/>
    <path class="st0" d="M117.77,85.69c5.06,1.59,12.39,11.49,14.51,14.51-3.15-2.2-12.93-9.47-14.51-14.51Z"/>
    <path class="st0" d="M131.7,77.35c6.24,2.49,16.39,15.97,17.65,17.64-1.82-1.36-15.14-11.38-17.65-17.64Z"/>
    <path class="st0" d="M145.97,69.34c6.85,3.1,18.66,18.24,20.08,20.08-1.99-1.54-16.97-13.2-20.08-20.08Z"/>
    <path class="st0" d="M160.23,61.34c7.58,3.85,21.29,20.83,23.21,23.21-2.17-1.75-19.34-15.59-23.21-23.21Z"/>
    <path class="st0" d="M174.16,52.99c5.61,3.1,9.94,7.53,14.01,12.34,4.24,4.55,8.37,9.21,12.34,14.01-4.8-3.96-9.46-8.1-14.01-12.34-4.81-4.07-9.23-8.4-12.34-14.01Z"/>
    <path class="st0" d="M188.42,44.98c6.02,3.51,10.76,8.35,15.23,13.56,4.65,4.96,9.18,10.02,13.56,15.23-5.21-4.37-10.27-8.91-15.23-13.56-5.21-4.47-10.04-9.21-13.56-15.23Z"/>
    <path class="st0" d="M202.69,36.98c6.49,3.98,11.69,9.28,16.62,14.95,5.11,5.42,10.11,10.95,14.95,16.62-5.67-4.84-11.2-9.84-16.62-14.95-5.67-4.93-10.97-10.13-14.95-16.62Z"/>
    <path class="st0" d="M216.61,28.63c8.09,4.36,23.16,22.69,25.29,25.29-2.39-1.96-20.91-17.16-25.29-25.29Z"/>
    <path class="st0" d="M230.88,20.62c4.08.76,8.11,6.36,11.02,11.02-2.51-1.56-10.24-6.79-11.02-11.02Z"/>
    <path class="st0" d="M207.86,467.05c.15-3.41,4.29-6.16,8.26-8.26-1.99,3.78-4.79,8.11-8.26,8.26Z"/>
    <path class="st0" d="M193.59,459.04c.22-3.49,4.54-6.39,8.55-8.56-2.07,3.84-5.01,8.34-8.55,8.56Z"/>
    <path class="st0" d="M179.67,450.69c.41-3.72,5.24-7.03,9.45-9.45-2.31,4.04-5.68,9.03-9.45,9.45Z"/>
    <path class="st0" d="M165.4,442.69c.66-3.95,5.94-7.74,10.59-10.59-1.51,2.48-6.46,9.91-10.59,10.59Z"/>
    <path class="st0" d="M151.14,434.68c1.13-4.46,7.52-9.24,12.68-12.68-1.87,2.82-8.06,11.52-12.68,12.68Z"/>
    <path class="st0" d="M137.22,426.33c1.57-5.04,11.41-12.32,14.42-14.42-2.12,3.03-9.21,12.8-14.42,14.42Z"/>
    <path class="st0" d="M123.3,417.98c1.89-5.36,12.49-13.42,15.81-15.81-2.38,3.31-10.27,13.86-15.81,15.81Z"/>
    <path class="st0" d="M108.93,410.07c2.56-6.31,16.22-16.64,17.9-17.9-1.37,1.83-11.57,15.33-17.9,17.9Z"/>
    <path class="st0" d="M95.01,401.72c2.99-6.74,17.82-18.24,19.64-19.64-1.52,1.97-12.87,16.64-19.64,19.64Z"/>
    <path class="st0" d="M80.74,393.71c2.87-6.01,9.91-12.31,21.38-21.38-1.58,2.01-14.21,17.96-21.38,21.38Z"/>
    <path class="st0" d="M66.48,385.71c3.92-7.65,21.08-21.54,23.47-23.47-1.78,2.2-15.78,19.54-23.47,23.47Z"/>
    <path class="st0" d="M52.56,377.36c1.41-4.88,10.8-11.72,13.73-13.73-2,2.92-8.68,12.27-13.73,13.73Z"/>
    <path class="st0" d="M278.21,453.42c1.53-.57,2.84-.66,3.48,3.48-4.15-.63-4.04-1.96-3.48-3.48Z"/>
    <path class="st0" d="M290.74,443.68c2.71-.4,4.13,2.05,5.22,5.22-3.21-1.09-5.61-2.55-5.22-5.22Z"/>
    <path class="st0" d="M302.92,433.59c3.08-.05,5.04,2.61,7.31,7.3-3.66-1.76-7.35-4.12-7.31-7.3Z"/>
    <path class="st0" d="M315.45,423.84c3.52.25,6.48,4.64,8.7,8.7-3.89-2.12-8.45-5.13-8.7-8.7Z"/>
    <path class="st0" d="M327.72,413.85c4,.7,7.89,6.1,10.79,10.78-2.51-1.54-10.05-6.6-10.79-10.78Z"/>
    <path class="st0" d="M339.9,403.75c4.43,1.09,9.14,7.4,12.53,12.53-2.8-1.85-11.4-7.94-12.53-12.53Z"/>
    <path class="st0" d="M352.43,394.01c4.92,1.45,11.88,10.96,13.92,13.92-3.06-2.11-12.47-9.01-13.92-13.92Z"/>
    <path class="st0" d="M364.61,383.92c5.4,1.93,13.58,12.66,16.01,16-1.69-1.22-13.91-10.15-16.01-16Z"/>
    <path class="st0" d="M377.14,374.17c6.27,2.52,16.49,16.07,17.75,17.75-1.82-1.36-15.22-11.45-17.75-17.75Z"/>
    <path class="st0" d="M389.32,364.08c6.7,2.95,18.09,17.67,19.49,19.49-1.96-1.51-16.52-12.76-19.49-19.49Z"/>
    <path class="st0" d="M401.85,354.34c5.99,2.84,12.24,9.85,21.23,21.23-2-1.58-17.85-14.09-21.23-21.23Z"/>
    <path class="st0" d="M425.51,355.73c4.2.86,8.45,6.71,11.48,11.48-2.56-1.63-10.56-6.98-11.48-11.48Z"/>
    <path class="st0" d="M41.76,366.64c6.99-10.72,32.36-32.83,35.99-35.99-2.89,3.32-25.21,28.95-35.99,35.99Z"/>
    <path class="st0" d="M41.25,344.88c6.18-9.91,29.42-29.88,32.67-32.67-2.62,3.05-22.72,26.46-32.67,32.67Z"/>
    <path class="st0" d="M41.25,322.6c5.33-9.06,26.3-26.76,29.19-29.19-2.28,2.71-20.09,23.84-29.19,29.19Z"/>
    <path class="st0" d="M41.25,300.33c4.47-8.21,23.15-23.6,25.71-25.71-1.98,2.41-17.47,21.22-25.71,25.71Z"/>
    <path class="st0" d="M41.25,278.06c3.05-6.19,10.39-12.77,22.23-22.23-1.69,2.12-14.85,18.6-22.23,22.23Z"/>
    <path class="st0" d="M41.25,255.79c2.77-6.52,17.02-17.43,18.75-18.75-1.28,1.68-12.16,15.95-18.75,18.75Z"/>
    <path class="st0" d="M41.25,233.51c1.76-5.23,12.02-12.95,15.27-15.27-2.3,3.22-9.86,13.45-15.27,15.27Z"/>
    <path class="st0" d="M41.25,211.24c1.25-4.72,10.2-11.12,13.03-13.03-1.92,2.86-8.32,11.78-13.03,13.03Z"/>
    <path class="st0" d="M41.25,188.97c.94-4.21,6.9-8.4,11.73-11.39-1.68,2.55-7.2,10.51-11.73,11.39Z"/>
    <path class="st0" d="M41.25,166.7c.35-3.64,5-6.81,9.15-9.15-2.23,3.97-5.46,8.8-9.15,9.15Z"/>
    <path class="st0" d="M411.85,320.55c10.34,6.61,31.47,31.01,34.39,34.39-3.18-2.75-27.76-24.01-34.39-34.39Z"/>
    <path class="st0" d="M415.68,302.11c6.44,3.93,11.6,9.19,16.49,14.82,5.07,5.38,10.02,10.86,14.82,16.49-5.63-4.79-11.11-9.75-16.49-14.82-5.62-4.89-10.88-10.04-14.82-16.49Z"/>
    <path class="st0" d="M418.81,282.97c5.92,3.41,10.55,8.14,14.92,13.25,4.55,4.86,8.98,9.82,13.25,14.92-5.1-4.27-10.06-8.71-14.92-13.25-5.11-4.37-9.84-9.01-13.25-14.92Z"/>
    <path class="st0" d="M422.29,264.18c5.33,2.83,9.39,6.98,13.18,11.51,3.97,4.28,7.82,8.66,11.51,13.18-4.52-3.69-8.9-7.54-13.18-11.51-4.53-3.79-8.68-7.85-11.51-13.18Z"/>
    <path class="st0" d="M426.12,245.74c4.68,2.19,8.11,5.69,11.27,9.6,3.33,3.62,6.54,7.36,9.6,11.27-3.9-3.05-7.64-6.27-11.27-9.6-3.91-3.16-7.41-6.59-9.6-11.27Z"/>
    <path class="st0" d="M429.6,226.94c4.09,1.61,6.94,4.52,9.53,7.86,2.75,3.04,5.38,6.2,7.86,9.53-3.32-2.47-6.48-5.11-9.53-7.86-3.34-2.59-6.25-5.44-7.86-9.53Z"/>
    <path class="st0" d="M433.08,208.15c4.92,1.45,11.86,10.95,13.9,13.9-3.06-2.11-12.46-9-13.9-13.9Z"/>
    <path class="st0" d="M436.56,189.36c3.91.62,7.64,5.85,10.42,10.42-2.47-1.49-9.77-6.33-10.42-10.42Z"/>
    <path class="st0" d="M440.04,170.57c2.85-.11,4.66,2.01,6.94,6.94-4.55-2.09-7.05-4.09-6.94-6.94Z"/>
    <path class="st0" d="M443.41,151.66c1.44-.3,2.39.12,3.63,3.63-3.33-1.07-3.66-2.31-3.63-3.63Z"/>
    <path class="st0" d="M364.31,383.72c-.51-7.9,9.96-24.37,11.09-26.13-.6,2.56-5.09,21.04-11.09,26.13Z"/>
    <path class="st0" d="M338.35,404.56c1.68-13.02,17.89-43.17,19.94-46.96-1.45,4.53-11.79,36.77-19.94,46.96Z"/>
    <path class="st0" d="M312.59,424.95c2.56-12.11,7.42-23.28,12.85-34.29,5.04-11.12,10.26-22.15,15.74-33.06-4.03,11.52-8.35,22.94-12.84,34.29-4.15,11.55-8.82,22.8-15.74,33.06Z"/>
    <path class="st0" d="M286.63,445.79c4.04-15.59,10.38-30.24,17.27-44.71,6.51-14.59,13.21-29.09,20.17-43.48-5.52,15-11.3,29.89-17.27,44.71-5.62,15.01-11.76,29.74-20.17,43.48Z"/>
    <path class="st0" d="M260.87,466.18c5.48-19,13.26-37.05,21.6-54.91,7.08-15.85,17.12-38.22,24.49-53.67-5.96,15.95-15.14,38.87-21.6,54.91-7.06,18.4-14.64,36.53-24.49,53.67Z"/>
    <path class="st0" d="M242.42,469.35c5.71-19.53,13.71-38.1,22.27-56.49,7.28-16.32,17.6-39.34,25.17-55.26-6.16,16.41-15.61,39.99-22.27,56.49-7.28,18.93-15.09,37.59-25.17,55.26Z"/>
    <path class="st0" d="M229.54,459.38c5-17.86,12.3-34.78,20.15-51.51,6.66-14.86,16.1-35.8,23.05-50.28-5.55,14.97-14.12,36.47-20.15,51.51-6.58,17.27-13.68,34.27-23.05,50.28Z"/>
    <path class="st0" d="M216.85,448.96c4.27-16.12,10.83-31.3,17.94-46.3,6.73-15.12,13.66-30.15,20.84-45.07-5.74,15.53-11.74,30.95-17.94,46.3-5.84,15.54-12.21,30.8-20.84,45.07Z"/>
    <path class="st0" d="M204.17,438.54c3.53-14.38,9.35-27.82,15.73-41.09,6-13.38,12.18-26.68,18.63-39.86-5,13.79-10.27,27.48-15.73,41.09-5.11,13.8-10.73,27.33-18.63,39.86Z"/>
    <path class="st0" d="M191.29,428.58c2.82-12.72,7.94-24.49,13.61-36.1,5.29-11.72,10.77-23.36,16.51-34.87-4.3,12.13-8.86,24.15-13.62,36.1-4.41,12.15-9.33,24.01-16.51,34.87Z"/>
    <path class="st0" d="M178.6,418.16c2.08-10.97,6.46-21.01,11.4-30.89,4.56-9.99,9.3-19.89,14.3-29.66-3.55,10.39-7.39,20.68-11.4,30.89-3.67,10.42-7.86,20.54-14.3,29.66Z"/>
    <path class="st0" d="M165.72,408.19c1.38-9.3,5.04-17.68,9.29-25.91,3.85-8.33,7.89-16.57,12.19-24.68-2.85,8.73-5.97,17.35-9.29,25.91-2.97,8.77-6.45,17.23-12.19,24.68Z"/>
    <path class="st0" d="M152.85,398.22c1.02-11.54,15.74-37.94,17.24-40.62-1.1,3.67-9.69,31.91-17.24,40.62Z"/>
    <path class="st0" d="M140.16,387.8c-.08-8.92,11.59-28.2,12.82-30.2-.73,2.83-6.37,24.09-12.82,30.2Z"/>
    <path class="st0" d="M127.42,377.51c-1.16-6.27,7.3-18.31,8.45-19.91-.38,2.12-3.13,16.38-8.45,19.91Z"/>
    <path class="st0" d="M114.53,367.56c-1.75-3.44,1.47-7.41,4.23-9.96.07,2.77-.42,8.79-4.23,9.96Z"/>
    <g>
      <path class="st0" d="M398.1,331.19s-115.16-205.77-140.26-250.62l181.78,52.44-186.22-61.87-3.74-47.62-3.74,47.64L55.04,136.24c.07-.03,167.57-49.95,192.8-57.47l150.26,252.42Z"/>
      <polygon class="st0" points="412.71 346.78 445.49 139.88 404.73 346.8 252.07 475.01 409.06 353.41 445.72 365.5 412.71 346.78"/>
      <path class="st0" d="M232.05,104.59s-113.21,189.87-139.25,233.54l-40.65-196.87,34.45,205.53-34.64,18.46,38.19-11.92,157.48,121.68c-.07-.06-130.98-109.73-151.59-126.99L232.05,104.59Z"/>
      <path class="st0" d="M112.82,348.94c90.98,3.28,183.19,3.25,274.18,0-90.98-3.25-183.19-3.28-274.18,0Z"/>
      <path class="st0" d="M453.36,120.28L260.71,9.06c-6.82-3.94-15.28-3.94-22.1,0L45.96,120.29c-6.82,3.94-11.05,11.27-11.05,19.14v222.46c0,7.87,4.23,15.2,11.04,19.14l192.65,111.23c3.41,1.97,7.23,2.95,11.05,2.95s7.64-.98,11.05-2.95l192.65-111.23c6.82-3.94,11.05-11.27,11.05-19.14v-222.46c0-7.87-4.23-15.2-11.04-19.14ZM451.7,361.88c0,3.35-1.8,6.47-4.7,8.14l-192.65,111.23c-2.9,1.67-6.5,1.67-9.4,0l-192.65-111.23c-2.9-1.67-4.7-4.79-4.7-8.14v-222.46c0-3.35,1.81-6.46,4.7-8.14L244.96,20.06c2.9-1.67,6.5-1.67,9.4,0l192.65,111.23c2.9,1.67,4.7,4.79,4.7,8.14v222.46Z"/>
    </g>
  </g>
  <g class="st1">
    <path class="st0" d="M252.93,499.73c-4.79,0-9.58-1.55-13.57-4.66L27.44,330.13c-5.42-4.22-8.52-10.57-8.52-17.44v-44.89c0-5.42,1.98-10.64,5.59-14.69L236.43,14.92c4.19-4.71,10.21-7.41,16.51-7.41h0c6.3,0,12.32,2.7,16.51,7.41l211.92,238.21c3.6,4.05,5.59,9.27,5.59,14.69v44.89c0,6.86-3.11,13.22-8.53,17.44l-211.92,164.92c-4,3.11-8.78,4.66-13.57,4.66ZM252.93,20.21c-2.68,0-5.24,1.15-7.02,3.15L33.99,261.55c-1.53,1.72-2.38,3.94-2.38,6.25v44.89c0,2.92,1.32,5.62,3.63,7.42l211.92,164.94c3.4,2.64,8.14,2.65,11.54,0l211.92-164.92c2.3-1.79,3.63-4.5,3.63-7.42v-44.89c0-2.31-.84-4.52-2.38-6.25L259.95,23.36c-1.78-2-4.34-3.15-7.02-3.15h0Z"/>
    <path class="st0" d="M464.18,315.75l-67.76,16.15L257.71,29.82l130.2,306.88c.79,1.87,2.25,3.37,4.1,4.21,1.98.9,4.23.97,6.26.19l65.92-25.35Z"/>
    <polygon class="st0" points="252.93 410.39 131.28 348.22 248.25 418.83 252.93 477.24 257.62 418.83 376.55 347.13 252.93 410.39"/>
    <path class="st0" d="M247.85,30.38L109.41,331.92l-67.69-15.84,65.88,25.04c2.03.77,4.28.7,6.25-.21,1.84-.84,3.3-2.34,4.09-4.2L247.85,30.38Z"/>
    <path class="st0" d="M25.27,284.64c10.47,5.42,29.87,29.41,31.75,31.75-2.02-1.62-26.29-21.2-31.75-31.75Z"/>
    <path class="st0" d="M25.78,262.87c18.13,13.17,57.89,57.25,63.6,63.6-5.79-5.21-50.35-45.36-63.6-63.6Z"/>
    <path class="st0" d="M35.18,250.01c14.05,10.7,26.36,23.16,38.3,36.07,12.19,12.61,24.24,25.36,36.07,38.3-12.94-11.84-25.69-23.88-38.3-36.07-12.91-11.94-25.38-24.25-36.07-38.3Z"/>
    <path class="st0" d="M45.62,238.18c13.41,10.06,25.09,21.88,36.39,34.16,11.56,11.97,22.96,24.08,34.16,36.39-12.31-11.2-24.42-22.6-36.39-34.16-12.28-11.3-24.1-22.97-34.16-36.39Z"/>
    <path class="st0" d="M56.41,226.7c12.77,9.42,23.81,20.61,34.47,32.25,10.92,11.33,21.68,22.8,32.25,34.47-11.67-10.56-23.14-21.33-34.47-32.25-11.64-10.66-22.83-21.7-32.25-34.47Z"/>
    <path class="st0" d="M66.85,214.87c12.19,8.84,22.65,19.44,32.73,30.51,10.34,10.75,20.53,21.64,30.51,32.73-11.09-9.97-21.98-20.17-32.73-30.51-11.06-10.08-21.67-20.54-30.51-32.73Z"/>
    <path class="st0" d="M77.29,203.04c11.55,8.2,21.37,18.17,30.82,28.59,9.7,10.11,19.25,20.37,28.59,30.82-10.45-9.33-20.71-18.89-30.82-28.59-10.43-9.45-20.4-19.27-28.59-30.82Z"/>
    <path class="st0" d="M87.73,191.21c10.97,7.62,20.21,17,29.08,26.85,9.12,9.53,18.09,19.21,26.85,29.08-9.87-8.76-19.55-17.73-29.08-26.85-9.85-8.87-19.24-18.11-26.85-29.08Z"/>
    <path class="st0" d="M98.17,179.38c10.33,6.98,18.93,15.73,27.17,24.94,8.48,8.9,16.82,17.93,24.94,27.17-9.23-8.12-18.27-16.46-27.17-24.94-9.21-8.24-17.96-16.84-24.94-27.17Z"/>
    <path class="st0" d="M108.61,167.54c9.74,6.39,17.77,14.56,25.42,23.2,7.9,8.32,15.65,16.77,23.2,25.42-8.65-7.54-17.11-15.3-25.43-23.2-8.64-7.66-16.8-15.68-23.2-25.42Z"/>
    <path class="st0" d="M119.04,155.71c9.1,5.76,16.49,13.28,23.51,21.29,7.27,7.68,14.38,15.5,21.29,23.51-8.01-6.9-15.83-14.02-23.51-21.29-8-7.02-15.53-14.41-21.29-23.51Z"/>
    <path class="st0" d="M129.48,143.88c8.52,5.17,15.33,12.12,21.77,19.54,6.69,7.1,13.22,14.34,19.54,21.77-7.43-6.32-14.67-12.86-21.77-19.54-7.43-6.45-14.37-13.25-19.54-21.77Z"/>
    <path class="st0" d="M140.27,132.4c11.72,6.75,34.35,33.74,37.49,37.48-3.53-2.95-30.71-25.72-37.49-37.48Z"/>
    <path class="st0" d="M150.39,120.25c11.03,5.98,31.95,31.49,34.01,34.01-3.25-2.65-28.06-23.04-34.01-34.01Z"/>
    <path class="st0" d="M161.18,108.77c10.07,5.02,28.36,27.89,30.18,30.18-2.94-2.33-25.19-20.17-30.18-30.18Z"/>
    <path class="st0" d="M171.62,96.94c9.1,4.06,24.78,24.3,26.35,26.35-2.63-2.02-22.32-17.3-26.35-26.35Z"/>
    <path class="st0" d="M182.06,85.11c8.18,3.17,21.37,20.83,22.88,22.87-1.56-1.15-19.66-14.58-22.88-22.87Z"/>
    <path class="st0" d="M192.5,73.28c7.3,2.3,18.12,17.57,19.39,19.39-3.79-2.64-7.35-5.55-10.81-8.58-3.84-2.83-7.07-6.01-8.58-10.81Z"/>
    <path class="st0" d="M202.94,61.44c6.37,1.36,14.64,14.11,15.57,15.57-1.22-.78-14.2-9.13-15.57-15.57Z"/>
    <path class="st0" d="M213.37,49.61c5,.45,10.42,9.1,12.09,12.09-2.45-1.35-11.62-6.92-12.09-12.09Z"/>
    <path class="st0" d="M223.81,37.78c4.06-.22,7.05,4.96,8.61,8.61-3.43-1.45-8.83-4.53-8.61-8.61Z"/>
    <path class="st0" d="M235.32,484.09c.34-4.87,8.65-9.99,11.57-11.57-1.33,2.47-2.93,4.73-4.67,6.9-1.57,2.65-3.51,4.44-6.9,4.67Z"/>
    <path class="st0" d="M223.15,474c3.41-8.45,21.86-22.34,23.75-23.75-1.81,2.43-15.36,20.37-23.75,23.75Z"/>
    <path class="st0" d="M210.62,464.26c6.45-11.42,32.62-33.24,36.28-36.28-2.77,3.34-24.79,29.79-36.28,36.28Z"/>
    <path class="st0" d="M197.74,454.86c7.09-12.07,35.01-35.62,38.86-38.86-3.05,3.62-26.74,31.74-38.86,38.86Z"/>
    <path class="st0" d="M185.57,444.77c4.47-7.81,10.71-13.92,17.44-19.67,6.4-5.99,12.94-11.82,19.67-17.44-5.62,6.73-11.46,13.27-17.44,19.67-5.75,6.73-11.86,12.97-19.67,17.44Z"/>
    <path class="st0" d="M173.04,435.03c4.12-7.46,10.01-13.22,16.4-18.63,6.05-5.64,12.25-11.13,18.63-16.4-5.27,6.38-10.76,12.57-16.4,18.63-5.4,6.39-11.17,12.28-18.63,16.4Z"/>
    <path class="st0" d="M160.51,425.29c3.83-7.17,9.43-12.64,15.53-17.76,5.77-5.34,11.64-10.57,17.76-15.53-4.96,6.11-10.19,11.99-15.53,17.76-5.12,6.1-10.59,11.7-17.76,15.53Z"/>
    <path class="st0" d="M147.64,415.89c3.6-6.93,8.96-12.17,14.83-17.06,5.54-5.11,11.18-10.1,17.06-14.83-4.72,5.88-9.72,11.52-14.83,17.06-4.89,5.88-10.13,11.24-17.06,14.83Z"/>
    <path class="st0" d="M135.11,406.15c3.31-6.64,8.37-11.59,13.96-16.19,5.25-4.82,10.6-9.52,16.19-13.96-4.43,5.59-9.14,10.94-13.96,16.19-4.6,5.59-9.55,10.66-16.19,13.96Z"/>
    <path class="st0" d="M122.93,396.05c2.96-6.28,7.67-10.89,12.92-15.15,4.9-4.48,9.91-8.83,15.14-12.92-4.09,5.24-8.44,10.24-12.92,15.15-4.25,5.25-8.86,9.96-15.15,12.92Z"/>
    <path class="st0" d="M110.35,386.37c2.67-5.99,7.08-10.31,12.05-14.28,4.61-4.19,9.33-8.25,14.28-12.05-3.79,4.95-7.86,9.66-12.05,14.28-3.97,4.96-8.29,9.38-14.28,12.05Z"/>
    <path class="st0" d="M97.82,376.63c3.62-8.66,22.67-23.14,24.59-24.59-3.5,4.66-7.28,9.08-11.18,13.41-3.68,4.68-7.72,8.8-13.41,11.18Z"/>
    <path class="st0" d="M85.29,366.88c3.16-8.17,20.8-21.34,22.85-22.85-1.15,1.56-14.56,19.64-22.85,22.85Z"/>
    <path class="st0" d="M72.77,357.14c2.03-7.03,16.57-17.12,18.32-18.33-1.39,2.04-11.3,16.29-18.32,18.33Z"/>
    <path class="st0" d="M60.24,347.4c.84-5.44,10.67-11.92,13.8-13.8-1.86,3.11-8.23,12.94-13.8,13.8Z"/>
    <path class="st0" d="M47.71,337.66c-.14-4.46,7.01-8.24,9.28-9.28-1.23,2.7-4.96,9.41-9.28,9.28Z"/>
    <path class="st0" d="M35.18,327.91c-1.12-3.39,6.39-7.06,7.21-7.21-.04.2-3.42,8.47-7.21,7.21Z"/>
    <path class="st0" d="M252.93,466.29c4.34-.07,8.27,6.75,9.62,9.62-2.63-1.23-9.7-5.18-9.62-9.62Z"/>
    <path class="st0" d="M252.93,444.02c8.04,3.01,20.83,20.34,22.14,22.14-2.3-1.68-19.16-14.15-22.14-22.14Z"/>
    <path class="st0" d="M252.93,421.75c11.2,6.15,32.57,32.11,34.67,34.67-3.31-2.71-28.56-23.54-34.67-34.67Z"/>
    <path class="st0" d="M263.2,409.74c11.58,6.61,33.84,33.22,36.93,36.93-3.5-2.91-30.3-25.3-36.93-36.93Z"/>
    <path class="st0" d="M277.47,401.74c11.15,6.18,32.23,31.61,35.19,35.19-3.27-2.7-28.98-23.98-35.19-35.19Z"/>
    <path class="st0" d="M291.73,393.73c10.89,5.84,31.43,30.97,33.45,33.45-2.02-1.64-27.56-22.46-33.45-33.45Z"/>
    <path class="st0" d="M306,385.73c10.46,5.41,29.84,29.38,31.71,31.71-3.11-2.5-26.35-21.33-31.71-31.71Z"/>
    <path class="st0" d="M320.47,377.94c9.93,4.88,27.85,27.37,29.63,29.63-2.9-2.3-24.77-19.76-29.63-29.63Z"/>
    <path class="st0" d="M334.74,369.93c9.5,4.45,26.24,25.78,27.89,27.89-1.81-1.41-23.41-18.32-27.89-27.89Z"/>
    <path class="st0" d="M349.01,361.93c9.05,4.01,24.58,24.11,26.14,26.14-2.63-2.01-22.16-17.15-26.14-26.14Z"/>
    <path class="st0" d="M363.28,353.93c8.62,3.57,22.97,22.5,24.4,24.4-2.46-1.85-20.85-15.84-24.4-24.4Z"/>
    <path class="st0" d="M377.54,345.92c8.13,3.12,21.17,20.63,22.67,22.67-1.51-1.11-19.5-14.41-22.67-22.67Z"/>
    <path class="st0" d="M391.81,337.92c7.69,2.68,19.55,19.01,20.93,20.93-1.42-1.02-18.2-13.11-20.93-20.93Z"/>
    <path class="st0" d="M408.51,332.35c6.67,1.65,15.75,15.23,16.75,16.75-1.9-1.25-15.11-10.12-16.75-16.75Z"/>
    <path class="st0" d="M425.56,327.13c5.09.49,10.65,9.4,12.23,12.23-2.88-1.61-11.74-7.14-12.23-12.23Z"/>
    <path class="st0" d="M442.61,321.91c3.84-.32,6.33,4.1,7.71,7.7-2.61-.99-8.04-3.73-7.71-7.7Z"/>
    <path class="st0" d="M459.97,317c1.17.11,2.13-.28,2.88,2.87-3.14-.94-2.7-1.89-2.88-2.87Z"/>
    <path class="st0" d="M443.12,322.07c4.51-9.53,25.86-26.38,28.26-28.26-1.43,1.83-18.59,23.68-28.26,28.26Z"/>
    <path class="st0" d="M410.76,332.16c12.28-17.25,54.05-54.68,60.04-60.04-4.9,5.47-42.68,47.68-60.04,60.04Z"/>
    <path class="st0" d="M390.58,330.07c10.1-13.46,21.97-25.18,34.29-36.52,12.01-11.6,24.17-23.05,36.52-34.29-11.24,12.35-22.69,24.51-34.29,36.52-11.34,12.32-23.06,24.19-36.52,34.29Z"/>
    <path class="st0" d="M383.62,314.76c9.52-12.87,20.81-24.01,32.55-34.78,11.43-11.02,23.01-21.89,34.78-32.55-10.66,11.77-21.53,23.35-32.55,34.78-10.77,11.74-21.9,23.03-34.78,32.55Z"/>
    <path class="st0" d="M376.66,299.45c8.94-12.29,19.65-22.85,30.81-33.04,10.85-10.44,21.85-20.73,33.04-30.81-10.08,11.19-20.37,22.19-30.81,33.04-10.19,11.16-20.75,21.87-33.04,30.81Z"/>
    <path class="st0" d="M370.05,283.79c8.3-11.65,18.37-21.57,28.9-31.12,10.22-9.8,20.57-19.45,31.12-28.9-9.44,10.55-19.1,20.91-28.9,31.13-9.55,10.53-19.47,20.6-31.12,28.9Z"/>
    <path class="st0" d="M363.09,268.48c7.66-11.01,17.09-20.3,26.98-29.21,9.58-9.17,19.3-18.18,29.21-26.98-8.8,9.91-17.82,19.63-26.98,29.21-8.91,9.89-18.2,19.32-29.21,26.98Z"/>
    <path class="st0" d="M356.13,253.17c7.08-10.43,15.93-19.13,25.24-27.47,9-8.59,18.14-17.02,27.47-25.25-8.22,9.33-16.66,18.47-25.24,27.47-8.34,9.31-17.04,18.17-27.47,25.24Z"/>
    <path class="st0" d="M349.46,237.57c9.55-14.52,44.01-44.63,48.89-48.89-3.89,4.46-34.29,39.29-48.89,48.89Z"/>
    <path class="st0" d="M342.84,221.91c8.62-13.59,40.63-41.24,45.06-45.06-3.61,4.19-31.42,36.41-45.06,45.06Z"/>
    <path class="st0" d="M335.89,206.6c7.75-12.72,37.42-38.03,41.58-41.58-3.24,3.81-28.78,33.78-41.58,41.58Z"/>
    <path class="st0" d="M328.93,191.29c6.9-11.88,34.31-34.92,38.1-38.1-3,3.57-26.18,31.17-38.1,38.1Z"/>
    <path class="st0" d="M321.97,175.98c6.14-11.19,32.06-32.52,34.62-34.62-2.7,3.3-23.5,28.52-34.62,34.62Z"/>
    <path class="st0" d="M315.36,160.32c5.18-10.23,28.5-28.97,30.79-30.79-2.36,2.96-20.63,25.65-30.79,30.79Z"/>
    <path class="st0" d="M308.4,145.01c4.22-9.26,24.91-25.37,26.96-26.97-2.06,2.67-17.76,22.77-26.96,26.97Z"/>
    <path class="st0" d="M301.78,129.35c3.32-8.34,21.42-21.95,23.48-23.49-1.8,2.42-15.16,20.17-23.48,23.49Z"/>
    <path class="st0" d="M294.82,114.04c2.37-7.37,17.83-18.38,19.66-19.66-1.5,2.14-12.29,17.29-19.66,19.66Z"/>
    <path class="st0" d="M288.21,98.38c1.41-6.4,14.21-14.79,15.83-15.83-1.16,1.82-9.42,14.42-15.83,15.83Z"/>
    <path class="st0" d="M281.25,83.07c.51-5.09,9.4-10.69,12.35-12.35-1.62,2.88-7.23,11.84-12.35,12.35Z"/>
    <path class="st0" d="M274.29,67.76c-.18-4.11,5.17-7.24,8.87-8.87-1.23,2.81-4.68,9.07-8.87,8.87Z"/>
    <path class="st0" d="M267.33,52.45c-.62-2.02-.76-4.04,5.39-5.39-.57,2.62-2.13,6.39-5.39,5.39Z"/>
    <path class="st0" d="M260.72,36.8c-.44-1.24.52-1.6,1.56-1.57-.24,1.61-.89,1.58-1.56,1.57Z"/>
  </g>
  <g class="st1">
    <path class="st0" d="M431.39,498.97H37.37c-17.04,0-30.9-13.86-30.9-30.9V74.06c0-8.25,3.21-16.01,9.05-21.85L51.52,16.21c5.84-5.84,13.59-9.05,21.85-9.05h394.01c17.04,0,30.9,13.86,30.9,30.9v394.01c0,8.25-3.21,16.01-9.05,21.85l-36,36c-5.84,5.84-13.59,9.05-21.85,9.05ZM73.37,24.92c-3.51,0-6.81,1.37-9.29,3.85l-36,36c-2.48,2.48-3.85,5.78-3.85,9.29v394.01c0,7.25,5.89,13.14,13.14,13.14h394.01c3.51,0,6.81-1.37,9.29-3.85l36-36c2.48-2.48,3.85-5.78,3.85-9.29V38.06c0-7.25-5.89-13.14-13.14-13.14H73.37Z"/>
    <path class="st0" d="M435,75.99l-391.8-5.55,391.8-5.55c7.37.08,7.46,10.99,0,11.1h0Z"/>
    <path class="st0" d="M431.08,66.52l40.26-32.41-32.41,40.26c-5.37,6.14-13.99-2.47-7.85-7.85h0Z"/>
    <path class="st0" d="M440.55,70.44l-5.55,390.39-5.55-390.39c.08-7.37,10.99-7.46,11.1,0h0Z"/>
    <path class="st0" d="M403.23,67.69c3.73-11.26,27.06-29.56,29.53-31.48-2.22,3.27-18.6,27.06-29.53,31.48Z"/>
    <path class="st0" d="M374.02,67.69c4.72-12.32,30.83-33.54,33.45-35.66-1.62,2.3-21.34,30.11-33.45,35.66Z"/>
    <path class="st0" d="M344.8,67.69c4.69-12.24,30.49-33.27,33.45-35.66-1.62,2.3-21.34,30.11-33.45,35.66Z"/>
    <path class="st0" d="M315.59,67.69c4.72-12.32,30.83-33.54,33.45-35.66-1.62,2.3-21.34,30.11-33.45,35.66Z"/>
    <path class="st0" d="M286.38,67.69c4.69-12.24,30.49-33.27,33.45-35.66-1.62,2.3-21.34,30.11-33.45,35.66Z"/>
    <path class="st0" d="M257.16,67.69c4.69-12.24,30.49-33.27,33.45-35.66-1.62,2.3-21.34,30.11-33.45,35.66Z"/>
    <path class="st0" d="M227.95,67.69c4.72-12.32,30.83-33.54,33.45-35.66-1.62,2.3-21.34,30.11-33.45,35.66Z"/>
    <path class="st0" d="M198.74,67.69c4.69-12.24,30.49-33.27,33.45-35.66-1.62,2.3-21.34,30.11-33.45,35.66Z"/>
    <path class="st0" d="M169.53,67.69c4.72-12.32,30.83-33.54,33.45-35.66-1.62,2.3-21.34,30.11-33.45,35.66Z"/>
    <path class="st0" d="M140.31,67.69c4.69-12.24,30.49-33.27,33.45-35.66-1.62,2.3-21.34,30.11-33.45,35.66Z"/>
    <path class="st0" d="M111.1,67.69c4.69-12.24,30.49-33.27,33.45-35.66-1.62,2.3-21.34,30.11-33.45,35.66Z"/>
    <path class="st0" d="M81.89,67.69c4.72-12.32,30.83-33.54,33.45-35.66-1.62,2.3-21.34,30.11-33.45,35.66Z"/>
    <path class="st0" d="M52.67,67.69c4.69-12.24,30.49-33.27,33.45-35.66-1.62,2.3-21.34,30.11-33.45,35.66Z"/>
    <path class="st0" d="M437.75,452.99c5.1-11.62,31.38-30.1,34.12-32.01-2.63,3.31-22.27,27.68-34.12,32.01Z"/>
    <path class="st0" d="M437.75,423.78c5.1-11.62,31.38-30.1,34.12-32.01-2.63,3.31-22.27,27.68-34.12,32.01Z"/>
    <path class="st0" d="M437.75,394.57c5.1-11.62,31.38-30.1,34.12-32.01-2.64,3.32-22.27,27.68-34.12,32.01Z"/>
    <path class="st0" d="M437.75,365.36c5.1-11.62,31.38-30.1,34.12-32.01-2.63,3.31-22.27,27.68-34.12,32.01Z"/>
    <path class="st0" d="M437.75,336.14c5.1-11.62,31.38-30.1,34.12-32.01-2.63,3.31-22.27,27.68-34.12,32.01Z"/>
    <path class="st0" d="M437.75,306.93c5.1-11.62,31.38-30.1,34.12-32.01-2.63,3.31-22.27,27.68-34.12,32.01Z"/>
    <path class="st0" d="M437.75,277.72c5.1-11.62,31.38-30.1,34.12-32.01-2.63,3.31-22.27,27.68-34.12,32.01Z"/>
    <path class="st0" d="M437.75,248.51c5.1-11.62,31.38-30.1,34.12-32.01-2.63,3.31-22.27,27.68-34.12,32.01Z"/>
    <path class="st0" d="M437.75,219.3c5.1-11.62,31.38-30.1,34.12-32.01-2.63,3.31-22.27,27.68-34.12,32.01Z"/>
    <path class="st0" d="M437.75,190.08c5.1-11.62,31.38-30.1,34.12-32.01-2.64,3.32-22.27,27.68-34.12,32.01Z"/>
    <path class="st0" d="M437.75,160.87c5.1-11.62,31.38-30.1,34.12-32.01-2.63,3.31-22.27,27.68-34.12,32.01Z"/>
    <path class="st0" d="M437.75,131.66c5.1-11.62,31.38-30.1,34.12-32.01-2.63,3.31-22.27,27.68-34.12,32.01Z"/>
    <path class="st0" d="M437.75,102.45c5.1-11.62,31.38-30.1,34.12-32.01-2.64,3.32-22.27,27.68-34.12,32.01Z"/>
    <path class="st0" d="M51.46,440.2c-1.63-81.81-3.31-173.58-3.33-255.41.26-20.54.96-43.22,1.81-63.85.4-7.09.68-14.19,1.19-21.28h.67c3.58,56.6,3.49,113.61,2.33,170.27-.55,49.99-1.39,120.96-2.67,170.27h0Z"/>
    <path class="st0" d="M403.23,458.5c-58.92,3.94-118.27,3.89-177.26,2.66-52.06-.55-125.9-1.4-177.26-2.66h0c51.06-1.26,125.38-2.12,177.26-2.66,58.98-1.22,118.35-1.28,177.26,2.66h0Z"/>
  </g>
  <g class="st1">
    <path class="st0" d="M252.38,498.28c-3.85,0-7.71-.99-11.14-2.98l-193.7-111.82c-6.87-3.97-11.14-11.36-11.14-19.3v-165.99c0-6.49,2.82-12.65,7.74-16.89L237.83,14.43h0c8.43-7.26,20.67-7.26,29.09,0l193.69,166.87c4.92,4.24,7.74,10.39,7.74,16.89v165.99c0,7.94-4.27,15.33-11.14,19.3l-193.69,111.82c-3.44,1.98-7.29,2.98-11.14,2.98ZM246.19,24.14L52.49,191.01c-2.09,1.8-3.29,4.42-3.29,7.18v165.99c0,3.38,1.82,6.52,4.74,8.21l193.7,111.82c2.92,1.69,6.55,1.69,9.48,0l193.69-111.82c2.92-1.69,4.74-4.83,4.74-8.21v-165.99c0-2.76-1.2-5.38-3.29-7.18L258.56,24.14c-3.59-3.09-8.79-3.09-12.38,0Z"/>
    <path class="st0" d="M432.71,373.35c-119.68,4.38-240.98,4.41-360.66,0,119.68-4.42,240.98-4.38,360.66,0h0Z"/>
    <path class="st0" d="M248.5,30.8c-28.65,52.84-62.42,113.76-91.98,166.23-29.89,54.84-62.38,111.55-97.53,163.04,26.85-56.21,59.59-112.87,91.98-166.23,30.54-51.94,66.21-111.71,97.53-163.04h0Z"/>
    <path class="st0" d="M255.72,30.14c31.35,51.42,67.13,111.34,97.71,163.36,32.46,53.5,65.24,110.2,92.16,166.56-35.18-51.56-67.78-108.45-97.71-163.36-29.63-52.6-63.46-113.59-92.16-166.56h0Z"/>
    <path class="st0" d="M442.97,355.63c-.22-4.06,4.92-7.06,8.66-8.66-1.47,3.46-4.56,8.89-8.66,8.66Z"/>
    <path class="st0" d="M434.9,341.24c1.61-6.65,15.06-15.63,16.73-16.73-1.26,1.93-10.08,15.12-16.73,16.73Z"/>
    <path class="st0" d="M426.82,326.85c3.65-8.74,22.87-23.34,24.8-24.8-1.22,1.62-15.98,21.12-24.8,24.8Z"/>
    <path class="st0" d="M418.4,312.81c5.73-10.8,30.5-31.01,33.22-33.23-1.69,2.09-22.27,27.41-33.22,33.23Z"/>
    <path class="st0" d="M410.33,298.42c7.66-12.67,37.15-37.77,41.29-41.3-3.22,3.79-28.55,33.59-41.29,41.3Z"/>
    <path class="st0" d="M401.91,284.38c6.56-9.94,14.91-18.15,23.74-25.98,8.5-8.08,17.14-16.02,25.98-23.74-7.71,8.84-15.65,17.48-23.74,25.98-7.84,8.82-16.04,17.17-25.98,23.74Z"/>
    <path class="st0" d="M393.83,269.99c7.91-11.29,17.61-20.84,27.77-30.02,9.85-9.43,19.83-18.71,30.02-27.77-9.06,10.18-18.35,20.17-27.77,30.02-9.18,10.16-18.72,19.86-30.02,27.77Z"/>
    <path class="st0" d="M385.76,255.6c8.32-11.7,18.42-21.65,28.99-31.23,10.25-9.83,20.64-19.51,31.23-28.99-9.46,10.59-19.15,20.98-28.98,31.23-9.58,10.56-19.53,20.67-31.23,28.99Z"/>
    <path class="st0" d="M377.42,241.49c7.67-11.05,17.13-20.36,27.05-29.3,9.61-9.19,19.35-18.23,29.3-27.05-8.82,9.94-17.87,19.69-27.05,29.3-8.94,9.92-18.25,19.38-29.3,27.05Z"/>
    <path class="st0" d="M369.34,227.1c7.03-10.41,15.84-19.07,25.12-27.37,8.96-8.55,18.07-16.94,27.37-25.12-8.18,9.3-16.58,18.41-25.12,27.37-8.3,9.28-16.96,18.1-27.37,25.12Z"/>
    <path class="st0" d="M360.92,213.06c6.38-9.76,14.55-17.78,23.19-25.44,8.32-7.9,16.78-15.65,25.44-23.19-7.53,8.66-15.29,17.12-23.19,25.44-7.66,8.64-15.68,16.81-25.44,23.19Z"/>
    <path class="st0" d="M352.85,198.67c5.74-9.11,13.26-16.49,21.26-23.51,7.68-7.26,15.5-14.37,23.51-21.26-6.89,8.01-14,15.83-21.26,23.51-7.02,8-14.4,15.53-23.51,21.26Z"/>
    <path class="st0" d="M344.77,184.28c5.09-8.46,11.97-15.2,19.33-21.58,7.03-6.62,14.21-13.08,21.58-19.33-6.24,7.37-12.72,14.54-19.33,21.58-6.38,7.37-13.11,14.24-21.58,19.33Z"/>
    <path class="st0" d="M336.35,170.24c4.45-7.81,10.67-13.91,17.4-19.65,6.39-5.98,12.92-11.79,19.65-17.4-5.6,6.72-11.43,13.26-17.4,19.65-5.74,6.73-11.83,12.96-19.65,17.4Z"/>
    <path class="st0" d="M328.28,155.85c3.8-7.16,9.38-12.62,15.47-17.72,5.76-5.33,11.62-10.53,17.72-15.47-4.94,6.1-10.15,11.96-15.47,17.72-5.1,6.09-10.55,11.67-17.72,15.47Z"/>
    <path class="st0" d="M320.21,141.46c4.78-9.87,27.09-27.57,29.33-29.33-1.97,2.51-19.39,24.51-29.33,29.33Z"/>
    <path class="st0" d="M311.78,127.42c3.8-8.85,23.26-23.79,25.47-25.47-1.28,1.69-16.49,21.62-25.47,25.47Z"/>
    <path class="st0" d="M303.71,113.03c2.74-7.79,19.31-19.86,21.26-21.26-1.06,1.48-13.35,18.48-21.26,21.26Z"/>
    <path class="st0" d="M295.64,98.64c1.78-6.82,15.69-16.26,17.4-17.4-.89,1.34-10.48,15.59-17.4,17.4Z"/>
    <path class="st0" d="M287.21,84.6c.84-5.47,10.74-12,13.88-13.89-1.87,3.13-8.28,13.02-13.88,13.89Z"/>
    <path class="st0" d="M279.14,70.21c-.02-4.51,7.26-8.69,10.03-10.03-1.26,2.61-5.46,10.05-10.03,10.03Z"/>
    <path class="st0" d="M271.07,55.82c-.82-2.99.5-4.48,5.81-5.81-.7,2.83-2.46,6.74-5.81,5.81Z"/>
    <path class="st0" d="M262.65,41.79c-1.37-1.82-.95-2.76,2.31-2.31-.28,3.72-1.64,4.68-2.31,2.31Z"/>
    <path class="st0" d="M371.87,425.03c5.28-8.65,12.35-15.58,19.9-22.15,7.22-6.81,14.59-13.46,22.15-19.9-6.43,7.56-13.09,14.92-19.9,22.15-6.56,7.55-13.49,14.62-22.15,19.9Z"/>
    <path class="st0" d="M318.87,455.57c10.38-13.77,22.55-25.78,35.17-37.42,12.31-11.89,24.76-23.63,37.41-35.17-11.53,12.65-23.28,25.1-35.17,37.42-11.63,12.62-23.65,24.79-37.42,35.17Z"/>
    <path class="st0" d="M265.87,486.1c15.48-18.86,32.74-35.97,50.44-52.68,15.41-14.94,37.19-36.01,52.68-50.44-14.34,15.41-35.56,37.35-50.44,52.68-16.72,17.7-33.82,34.96-52.68,50.44Z"/>
    <path class="st0" d="M241.66,487.86c15.77-19.16,33.32-36.55,51.31-53.56,15.66-15.2,37.81-36.63,53.56-51.31-14.6,15.66-36.18,37.97-51.31,53.56-17.01,17.99-34.4,35.55-53.56,51.31Z"/>
    <path class="st0" d="M227.62,479.43c14.36-17.75,30.51-33.74,47.1-49.35,14.42-13.96,34.82-33.64,49.35-47.1-13.38,14.45-33.2,34.99-47.1,49.35-15.61,16.59-31.6,32.74-49.35,47.1Z"/>
    <path class="st0" d="M213.23,471.36c13.02-16.4,27.82-31.05,43.07-45.31,13.24-12.78,31.96-30.78,45.31-43.07-12.22,13.28-30.34,32.13-43.07,45.31-14.26,15.25-28.91,30.05-45.31,43.07Z"/>
    <path class="st0" d="M199.19,462.94c11.61-15,25.01-28.24,38.85-41.1,12-11.54,28.97-27.79,41.1-38.85-11,12.07-27.37,29.16-38.85,41.1-12.86,13.84-26.1,27.24-41.1,38.85Z"/>
    <path class="st0" d="M184.8,454.86c10.26-13.65,22.32-25.55,34.82-37.06,12.19-11.78,24.53-23.4,37.06-34.82-11.42,12.53-23.04,24.87-34.82,37.06-11.52,12.5-23.42,24.55-37.06,34.82Z"/>
    <path class="st0" d="M170.41,446.79c8.92-12.3,19.62-22.85,30.78-33.03,10.85-10.43,21.84-20.71,33.03-30.78-10.06,11.19-20.35,22.18-30.78,33.03-10.18,11.16-20.73,21.86-33.03,30.78Z"/>
    <path class="st0" d="M156.37,438.37c7.51-10.89,16.81-20.04,26.57-28.82,9.45-9.03,19.03-17.9,28.81-26.57-8.66,9.78-17.54,19.37-26.57,28.82-8.78,9.76-17.92,19.06-28.82,26.57Z"/>
    <path class="st0" d="M141.98,430.29c6.16-9.54,14.11-17.34,22.53-24.78,8.1-7.68,16.34-15.21,24.78-22.53-7.31,8.44-14.85,16.68-22.53,24.78-7.44,8.42-15.24,16.37-24.78,22.53Z"/>
    <path class="st0" d="M127.59,422.22c4.81-8.18,11.41-14.64,18.5-20.74,6.76-6.34,13.65-12.52,20.74-18.5-5.97,7.09-12.16,13.99-18.5,20.74-6.1,7.09-12.56,13.69-20.74,18.5Z"/>
    <path class="st0" d="M113.68,413.68c5.13-10.22,28.41-28.87,30.69-30.7-2.36,2.97-20.53,25.6-30.69,30.7Z"/>
    <path class="st0" d="M99.29,405.6c3.1-8.19,20.79-21.28,22.62-22.62-1.71,2.33-14.48,19.54-22.62,22.62Z"/>
    <path class="st0" d="M85.25,397.18c.91-5.52,10.91-12.2,14.2-14.2-1.94,3.21-8.61,13.28-14.2,14.2Z"/>
    <path class="st0" d="M70.86,389.11c-.19-4.48,6.88-8.87,9.61-10.31-.99,2.26-4.96,10.18-9.61,10.31Z"/>
    <path class="st0" d="M42.8,336.75c5.29.66,11.34,10.06,13.1,13.1-3.01-1.74-12.43-7.76-13.1-13.1Z"/>
    <path class="st0" d="M42.8,314.29c7.23,2.16,17.74,17.23,18.87,18.87-2.07-1.42-16.72-11.68-18.87-18.87Z"/>
    <path class="st0" d="M42.8,291.83c9.37,4.28,25.68,25.21,27.29,27.29-2.69-2.08-23.04-17.98-27.29-27.29Z"/>
    <path class="st0" d="M42.8,269.37c11.21,6.2,32.38,31.76,35.37,35.36-3.28-2.71-29.13-24.09-35.37-35.36Z"/>
    <path class="st0" d="M42.8,246.9c13.21,8.19,39.73,39.11,43.44,43.44-3.94-3.37-35.2-30.15-43.44-43.44Z"/>
    <path class="st0" d="M42.8,224.44c10.3,6.92,18.86,15.63,27.05,24.81,8.44,8.86,16.73,17.86,24.81,27.05-9.19-8.07-18.2-16.37-27.05-24.81-9.18-8.19-17.89-16.75-24.81-27.05Z"/>
    <path class="st0" d="M42.8,201.98c11.65,8.27,21.56,18.33,31.09,28.84,9.79,10.2,19.42,20.55,28.84,31.09-10.54-9.42-20.89-19.06-31.09-28.84-10.52-9.53-20.57-19.44-28.84-31.09Z"/>
    <path class="st0" d="M48.59,185.31c12.09,8.71,22.44,19.21,32.41,30.16,10.22,10.64,20.3,21.43,30.16,32.41-10.98-9.86-21.77-19.94-32.41-30.16-10.95-9.97-21.45-20.31-30.16-32.41Z"/>
    <path class="st0" d="M60.52,174.78c11.45,8.06,21.15,17.92,30.48,28.23,9.58,10,19.01,20.14,28.23,30.47-10.34-9.21-20.48-18.65-30.48-28.23-10.31-9.33-20.17-19.03-28.23-30.48Z"/>
    <path class="st0" d="M72.45,164.25c10.8,7.42,19.86,16.63,28.55,26.3,8.94,9.36,17.72,18.85,26.3,28.54-9.69-8.57-19.19-17.36-28.55-26.3-9.67-8.69-18.88-17.74-26.3-28.55Z"/>
    <path class="st0" d="M84.74,154.07c10.15,6.77,18.57,15.34,26.61,24.37,8.3,8.71,16.44,17.57,24.37,26.61-9.05-7.92-17.9-16.08-26.62-24.37-9.03-8.05-17.6-16.46-24.37-26.62Z"/>
    <path class="st0" d="M96.67,143.54c9.51,6.13,17.28,14.05,24.68,22.44,7.65,8.07,15.15,16.28,22.44,24.68-8.4-7.28-16.62-14.79-24.69-22.44-8.39-7.41-16.31-15.18-22.44-24.68Z"/>
    <path class="st0" d="M108.96,133.36c8.8,5.43,15.87,12.64,22.58,20.33,6.95,7.37,13.75,14.88,20.33,22.58-7.7-6.58-15.21-13.38-22.58-20.33-7.7-6.71-14.91-13.78-20.33-22.58Z"/>
    <path class="st0" d="M120.89,122.83c8.21,4.84,14.7,11.46,20.82,18.58,6.37,6.78,12.58,13.71,18.58,20.82-7.12-5.99-14.04-12.21-20.83-18.58-7.12-6.13-13.74-12.61-18.58-20.82Z"/>
    <path class="st0" d="M132.82,112.31c7.56,4.19,13.41,10.17,18.89,16.65,5.72,6.14,11.29,12.42,16.65,18.89-6.47-5.35-12.75-10.93-18.89-16.65-6.48-5.49-12.45-11.33-16.65-18.89Z"/>
    <path class="st0" d="M144.97,101.99c6.91,3.55,12.12,8.87,16.96,14.72,5.08,5.51,10.03,11.11,14.72,16.96-5.85-4.68-11.46-9.64-16.96-14.72-5.85-4.85-11.17-10.06-14.72-16.96Z"/>
    <path class="st0" d="M156.9,91.46c9.5,4.41,26.18,25.71,27.82,27.82-2.8-2.18-23.44-18.39-27.82-27.82Z"/>
    <path class="st0" d="M169.18,81.28c8.52,3.44,22.54,22.05,23.96,23.96-2.45-1.83-20.54-15.49-23.96-23.96Z"/>
    <path class="st0" d="M181.12,70.75c7.54,2.47,18.9,18.39,20.1,20.1-2.16-1.52-17.65-12.6-20.1-20.1Z"/>
    <path class="st0" d="M193.4,60.57c6.43,1.41,14.84,14.25,15.89,15.88-1.83-1.17-14.48-9.45-15.89-15.88Z"/>
    <path class="st0" d="M205.33,50.04c5.11.5,10.72,9.42,12.38,12.38-2.9-1.62-11.88-7.21-12.38-12.38Z"/>
    <path class="st0" d="M217.27,39.51c4.08-.24,7.07,5.07,8.52,8.51-3.73-1.55-8.75-4.48-8.52-8.51Z"/>
    <path class="st0" d="M229.55,29.33c1.24-.47,1.97-.41,2.57-.24.62.15.61.94.88,1.44.61,1.07,1.02,2.18,1.21,3.45-1.27-.18-2.39-.6-3.45-1.2-.51-.27-1.29-.26-1.44-.88-.17-.6-.23-1.33.24-2.57Z"/>
  </g>
  <g class="st1">
    <path class="st0" d="M344.15,356.19l53.12-143.84,67.75-28.25-71.69,17.04c-1.86.44-3.56,1.39-4.91,2.74-1.25,1.25-2.16,2.8-2.63,4.5l-41.63,147.81Z"/>
    <path class="st0" d="M345.45,371.14c-.99-1.63-2.42-2.95-4.12-3.82-1.57-.8-3.33-1.19-5.09-1.12l-153.84,6.08,153.61,6.07,47.78,55.7-38.33-62.91Z"/>
    <path class="st0" d="M235.78,118.04l-124.6,83-71.43-16.97,68.02,28.36c1.76.73,3.69.97,5.58.67,1.75-.28,3.39-1,4.78-2.09l117.64-92.96Z"/>
    <path class="st0" d="M117.28,222.74l41.89,148.63-39.15,63.96,48.94-57.21c1.24-1.45,2.05-3.21,2.35-5.09.28-1.74.1-3.54-.51-5.2l-53.52-145.1Z"/>
    <path class="st0" d="M246.45,103.06c-.15,1.9.22,3.81,1.09,5.51.8,1.58,2,2.92,3.47,3.9l125.81,83.9-118.49-93.6-5.94-73.18-5.94,73.46Z"/>
    <path class="st0" d="M33.03,168.61c4.23-.25,7.27,5.18,8.76,8.76-3.86-1.59-9.01-4.59-8.76-8.76Z"/>
    <path class="st0" d="M43.24,155.48c10.96,5.66,31.23,30.74,33.19,33.19-3.26-2.62-27.58-22.32-33.19-33.19Z"/>
    <path class="st0" d="M53.08,141.99c15.53,10.32,47.94,47.29,52.52,52.52-4.77-4.18-42.14-36.9-52.52-52.52Z"/>
    <path class="st0" d="M62.56,128.13c11.15,7.63,20.48,17.12,29.43,27.1,9.21,9.64,18.26,19.44,27.1,29.43-9.99-8.83-19.79-17.89-29.43-27.1-9.97-8.95-19.47-18.29-27.1-29.43Z"/>
    <path class="st0" d="M72.41,114.64c11.76,8.24,21.7,18.34,31.25,28.92,9.82,10.25,19.48,20.65,28.92,31.25-10.6-9.43-21-19.1-31.25-28.92-10.58-9.56-20.68-19.5-28.92-31.25Z"/>
    <path class="st0" d="M82.25,101.15c12.37,8.85,22.92,19.56,33.08,30.74,10.43,10.86,20.69,21.87,30.74,33.08-11.21-10.04-22.22-20.32-33.08-30.74-11.18-10.16-21.89-20.71-30.74-33.08Z"/>
    <path class="st0" d="M92.1,87.66c12.97,9.46,24.13,20.78,34.9,32.57,11.03,11.47,21.91,23.08,32.57,34.9-11.82-10.65-23.43-21.54-34.9-32.57-11.79-10.77-23.11-21.93-32.57-34.9Z"/>
    <path class="st0" d="M101.76,73.99c13.58,10.07,25.35,21.99,36.72,34.39,11.64,12.07,23.12,24.3,34.39,36.72-12.43-11.27-24.65-22.75-36.72-34.39-12.4-11.37-24.32-23.14-34.39-36.72Z"/>
    <path class="st0" d="M112.34,61.22c14.13,10.62,26.45,23.09,38.36,36.03,12.19,12.62,24.22,25.39,36.03,38.36-12.97-11.81-25.74-23.84-38.36-36.03-12.94-11.92-25.41-24.23-36.03-38.36Z"/>
    <path class="st0" d="M129.11,54.66c13.58,10.07,25.35,21.99,36.72,34.39,11.64,12.07,23.12,24.3,34.39,36.72-12.43-11.27-24.65-22.75-36.72-34.39-12.4-11.37-24.32-23.14-34.39-36.72Z"/>
    <path class="st0" d="M146.61,48.83c12.91,9.4,24.01,20.65,34.72,32.38,10.97,11.41,21.79,22.96,32.38,34.72-11.76-10.59-23.31-21.41-34.72-32.38-11.73-10.71-22.99-21.8-32.38-34.72Z"/>
    <path class="st0" d="M164.11,42.99c12.24,8.73,22.67,19.32,32.71,30.38,10.3,10.74,20.45,21.62,30.38,32.71-11.09-9.92-21.98-20.08-32.71-30.38-11.06-10.04-21.65-20.47-30.38-32.71Z"/>
    <path class="st0" d="M181.98,37.52c17.07,11.86,53.61,52.97,58.72,58.72-5.41-4.8-46.81-41.58-58.72-58.72Z"/>
    <path class="st0" d="M199.48,31.69c13.03,7.82,38.73,38.08,42.36,42.36-3.9-3.3-34.49-29.25-42.36-42.36Z"/>
    <path class="st0" d="M217.35,26.22c8.71,3.45,22.89,22.33,24.49,24.49-2.54-1.88-21.04-15.8-24.49-24.49Z"/>
    <path class="st0" d="M234.85,20.38c3.59-.74,8.79,7.89,9.88,11.3-3.22-1.01-10.64-7.62-9.88-11.3Z"/>
    <path class="st0" d="M452.21,184.25c-.23-2.06,1.04-4.2,3.85-4.52-1.28,3.82-2.27,4.36-3.85,4.52Z"/>
    <path class="st0" d="M417.54,199.5c4.66-9.95,27-27.48,29.2-29.2-1.48,1.9-19.18,24.51-29.2,29.2Z"/>
    <path class="st0" d="M388.74,204.97c9.24-14.45,43.29-43.95,48.16-48.17-3.84,4.45-33.63,38.87-48.16,48.17Z"/>
    <path class="st0" d="M375.25,195.12c10.15-15.35,46.63-47.29,51.81-51.81-4.12,4.72-36.36,41.6-51.81,51.81Z"/>
    <path class="st0" d="M361.76,185.27c7.45-10.97,16.76-20.12,26.56-28.89,9.47-9.03,19.08-17.9,28.89-26.56-8.65,9.82-17.53,19.43-26.56,28.89-8.77,9.8-17.93,19.11-28.89,26.56Z"/>
    <path class="st0" d="M348.26,175.43c8.12-11.64,18.1-21.46,28.56-30.9,10.13-9.7,20.41-19.24,30.9-28.57-9.32,10.48-18.87,20.77-28.56,30.9-9.44,10.46-19.26,20.44-30.9,28.56Z"/>
    <path class="st0" d="M334.77,165.58c8.67-12.19,19.2-22.56,30.21-32.54,10.68-10.25,21.51-20.33,32.54-30.21-9.86,11.03-19.96,21.86-30.2,32.54-9.98,11.01-20.35,21.54-32.54,30.21Z"/>
    <path class="st0" d="M321.28,155.74c9.28-12.8,20.42-23.77,32.03-34.36,11.29-10.85,22.72-21.55,34.36-32.03-10.47,11.64-21.18,23.08-32.03,34.36-10.59,11.61-21.57,22.75-34.36,32.03Z"/>
    <path class="st0" d="M307.63,146.05c9.89-13.41,21.64-24.99,33.85-36.19,11.9-11.46,23.94-22.77,36.19-33.85-11.09,12.25-22.39,24.29-33.85,36.19-11.19,12.22-22.78,23.96-36.19,33.85Z"/>
    <path class="st0" d="M294.14,136.21c9.28-12.8,20.42-23.77,32.03-34.36,11.29-10.85,22.72-21.55,34.36-32.03-10.47,11.64-21.18,23.08-32.03,34.36-10.59,11.61-21.57,22.75-34.36,32.03Z"/>
    <path class="st0" d="M280.65,126.36c8.67-12.19,19.2-22.56,30.21-32.54,10.68-10.25,21.51-20.33,32.54-30.21-9.86,11.03-19.96,21.86-30.2,32.54-9.98,11.01-20.35,21.54-32.54,30.21Z"/>
    <path class="st0" d="M267.15,116.52c11.77-16.98,52.65-53.3,58.37-58.37-4.77,5.38-41.32,46.55-58.37,58.37Z"/>
    <path class="st0" d="M253.66,106.68c10.78-15.99,48.98-49.63,54.36-54.37-4.46,5.07-38.31,43.54-54.36,54.37Z"/>
    <path class="st0" d="M252.39,84.61c6.69-11.9,33.94-34.59,37.77-37.77-2.89,3.48-25.79,31.03-37.77,37.77Z"/>
    <path class="st0" d="M252.39,61.28c2.4-7.64,18.35-18.93,20.27-20.27-1.04,1.5-12.52,17.84-20.27,20.27Z"/>
    <path class="st0" d="M108.09,440.28c1.72-6.98,15.94-16.48,17.52-17.53-1.31,2-10.58,15.81-17.52,17.53Z"/>
    <path class="st0" d="M98.24,426.78c6.84-10.35,15.54-18.9,24.73-27.07,8.86-8.42,17.86-16.69,27.07-24.73-8.04,9.21-16.31,18.21-24.73,27.07-8.17,9.19-16.71,17.89-27.07,24.73Z"/>
    <path class="st0" d="M88.4,413.29c7.51-11.03,16.88-20.24,26.74-29.07,9.52-9.09,19.2-18.02,29.07-26.74-8.71,9.88-17.65,19.55-26.74,29.07-8.83,9.86-18.05,19.23-29.07,26.74Z"/>
    <path class="st0" d="M78.55,399.8c8.24-11.76,18.34-21.7,28.93-31.26,10.25-9.82,20.65-19.48,31.26-28.93-9.44,10.6-19.11,21.01-28.93,31.26-9.56,10.58-19.5,20.68-31.26,28.93Z"/>
    <path class="st0" d="M69.03,385.99c8.85-12.37,19.56-22.92,30.75-33.08,10.86-10.43,21.87-20.7,33.08-30.75-10.04,11.21-20.32,22.22-30.75,33.08-10.16,11.19-20.72,21.9-33.08,30.75Z"/>
    <path class="st0" d="M59.19,372.49c9.58-13.1,21.02-24.38,32.94-35.27,11.59-11.16,23.33-22.16,35.27-32.94-10.78,11.94-21.78,23.68-32.94,35.27-10.89,11.91-22.17,23.35-35.27,32.94Z"/>
    <path class="st0" d="M49.34,359c10.25-13.77,22.36-25.72,34.94-37.28,12.26-11.82,24.66-23.49,37.28-34.94-11.45,12.61-23.12,25.02-34.94,37.28-11.56,12.58-23.51,24.69-37.28,34.94Z"/>
    <path class="st0" d="M39.5,345.51c10.92-14.44,23.7-27.06,36.95-39.28,12.93-12.49,26-24.83,39.28-36.95-12.12,13.28-24.46,26.36-36.95,39.28-12.22,13.25-24.84,26.03-39.28,36.95Z"/>
    <path class="st0" d="M29.65,332.02c11.59-15.11,25.04-28.4,38.96-41.29,12.05-11.57,29.1-27.87,41.29-38.96-11.02,12.13-27.43,29.29-38.96,41.29-12.89,13.91-26.18,27.36-41.29,38.96Z"/>
    <path class="st0" d="M25.82,312.51c11.32-14.84,24.49-27.85,38.13-40.47,13.32-12.89,26.79-25.62,40.47-38.13-12.52,13.68-25.25,27.15-38.13,40.47-12.62,13.64-25.63,26.82-40.47,38.13Z"/>
    <path class="st0" d="M25.82,289.17c9.92-13.43,21.69-25.05,33.94-36.27,11.92-11.49,24-22.82,36.27-33.94-11.12,12.28-22.45,24.35-33.94,36.27-11.22,12.25-22.84,24.02-36.27,33.94Z"/>
    <path class="st0" d="M25.82,265.84c6.99-10.51,15.85-19.21,25.19-27.52,9.01-8.58,18.16-16.99,27.52-25.19-8.19,9.36-16.62,18.51-25.19,27.52-8.32,9.34-17.02,18.19-27.52,25.19Z"/>
    <path class="st0" d="M25.82,242.5c6.07-11.36,32.25-32.74,34.85-34.85-1.77,2.19-23.38,28.72-34.85,34.85Z"/>
    <path class="st0" d="M25.82,219.16c1.77-7.03,16.11-16.66,17.71-17.71-.89,1.35-10.61,15.92-17.71,17.71Z"/>
    <path class="st0" d="M367.89,453.66c-2.8-7.75,2.97-27.23,3.6-29.31.14,2.74.97,22.51-3.6,29.31Z"/>
    <path class="st0" d="M351.39,459.34c-2.16-13.08,5.44-47.11,6.2-50.47-.09,4.43-.96,38.37-6.2,50.47Z"/>
    <path class="st0" d="M334.88,464.49c-1.06-11.75.46-23.22,2.6-34.69,1.72-11.47,3.64-22.91,5.87-34.29-.6,11.59-1.49,23.15-2.6,34.69-.7,11.65-2,23.15-5.87,34.29Z"/>
    <path class="st0" d="M318.38,469.65c-.74-14.34,1.1-28.4,3.55-42.45,2.04-14.05,4.28-28.08,6.83-42.05-.91,14.17-2.12,28.32-3.55,42.45-1.02,14.22-2.63,28.31-6.83,42.05Z"/>
    <path class="st0" d="M301.88,475.32c-.63-15.28,1.33-30.28,3.9-45.26,2.15-14.99,4.51-29.95,7.17-44.86-1.03,15.11-2.35,30.2-3.9,45.26-1.13,15.16-2.86,30.18-7.17,44.86Z"/>
    <path class="st0" d="M285.38,480.48c-.52-16.14,1.54-31.99,4.21-47.83,2.26-15.84,4.72-31.66,7.49-47.42-1.13,15.97-2.56,31.91-4.21,47.83-1.24,16.01-3.07,31.89-7.49,47.42Z"/>
    <path class="st0" d="M268.88,486.15c-.41-17.08,1.77-33.87,4.56-50.64,2.37-16.78,4.95-33.53,7.83-50.24-1.25,16.91-2.79,33.78-4.56,50.64-1.35,16.95-3.3,33.76-7.83,50.24Z"/>
    <path class="st0" d="M252.38,490.53c-.32-17.81,1.95-35.32,4.82-52.81,2.46-17.51,5.13-34.98,8.1-52.41-1.34,17.63-2.97,35.23-4.82,52.81-1.44,17.67-3.48,35.21-8.1,52.41Z"/>
    <path class="st0" d="M235.88,486.15c-.41-17.08,1.77-33.87,4.56-50.64,2.37-16.78,4.95-33.53,7.83-50.24-1.25,16.91-2.79,33.78-4.56,50.64-1.35,16.95-3.3,33.76-7.83,50.24Z"/>
    <path class="st0" d="M219.37,480.48c-.52-16.14,1.54-31.99,4.21-47.83,2.26-15.84,4.72-31.66,7.49-47.42-1.13,15.97-2.56,31.91-4.21,47.83-1.24,16.01-3.07,31.89-7.49,47.42Z"/>
    <path class="st0" d="M202.87,475.32c-.63-15.28,1.33-30.28,3.9-45.26,2.15-14.99,4.51-29.95,7.17-44.86-1.03,15.11-2.36,30.2-3.9,45.26-1.13,15.16-2.86,30.18-7.17,44.86Z"/>
    <path class="st0" d="M186.37,470.17c-.73-14.43,1.12-28.57,3.58-42.71,2.04-14.14,4.3-28.24,6.86-42.3-.92,14.26-2.15,28.49-3.58,42.71-1.03,14.31-2.66,28.48-6.86,42.3Z"/>
    <path class="st0" d="M169.87,464.49c-.85-13.49.89-26.69,3.24-39.89,1.93-13.2,4.07-26.37,6.51-39.49-.81,13.32-1.91,26.61-3.24,39.89-.91,13.38-2.43,26.61-6.51,39.49Z"/>
    <path class="st0" d="M153.37,459.34c-1.28-9.9,0-19.54,1.92-29.19,1.49-9.64,3.2-19.24,5.2-28.79-.36,9.74-1.04,19.48-1.92,29.19-.47,9.83-1.56,19.49-5.2,28.79Z"/>
    <path class="st0" d="M136.87,453.66c-2.79-7.89,3.04-27.75,3.66-29.82.13,2.76.93,22.89-3.66,29.82Z"/>
    <path class="st0" d="M121.44,448.57c1.16.88,1.56,1.67,1.78,2.43.25.77-.41,1.42-.68,2.13-.51,1.48-1.19,2.87-2.17,4.16-.64-1.48-.96-3-1.1-4.56-.08-.75-.57-1.54-.14-2.23.4-.69.98-1.35,2.31-1.93Z"/>
    <path class="st0" d="M342.01,362.28c14.98,9.77,45.91,45.25,50.3,50.3-4.61-4.01-40.47-35.23-50.3-50.3Z"/>
    <path class="st0" d="M347.85,344.78c15.97,10.77,49.58,48.93,54.31,54.31-5.07-4.45-43.5-38.27-54.31-54.31Z"/>
    <path class="st0" d="M353.32,326.92c11.45,7.93,21.08,17.72,30.33,27.99,9.51,9.94,18.86,20.03,27.99,30.33-10.29-9.13-20.38-18.49-30.33-27.99-10.27-9.25-20.06-18.88-27.99-30.33Z"/>
    <path class="st0" d="M359.15,309.42c12.12,8.6,22.42,19.06,32.33,30,10.18,10.61,20.2,21.37,30,32.33-10.96-9.8-21.72-19.82-32.33-30-10.94-9.91-21.4-20.22-30-32.33Z"/>
    <path class="st0" d="M364.99,291.91c12.79,9.27,23.76,20.4,34.34,32,10.85,11.28,21.53,22.7,32,34.34-11.63-10.46-23.06-21.16-34.34-32-11.6-10.58-22.73-21.55-32-34.34Z"/>
    <path class="st0" d="M370.46,274.05c13.52,10,25.22,21.86,36.53,34.19,11.58,12.01,22.99,24.17,34.19,36.53-12.36-11.2-24.52-22.62-36.53-34.19-12.33-11.31-24.19-23.01-34.19-36.53Z"/>
    <path class="st0" d="M376.29,256.54c14.19,10.67,26.56,23.2,38.53,36.2,12.24,12.68,24.33,25.5,36.2,38.53-13.03-11.87-25.86-23.96-38.53-36.2-13-11.97-25.53-24.34-36.2-38.53Z"/>
    <path class="st0" d="M382.12,239.04c14.86,11.34,27.9,24.54,40.54,38.21,12.91,13.34,25.67,26.84,38.21,40.54-13.7-12.54-27.19-25.29-40.54-38.2-13.66-12.64-26.86-25.68-38.2-40.54Z"/>
    <path class="st0" d="M387.64,221.22c14.56,11.05,27.31,23.95,39.65,37.32,12.62,13.05,25.08,26.25,37.32,39.65-13.4-12.24-26.6-24.7-39.65-37.32-13.37-12.35-26.27-25.09-37.32-39.65Z"/>
    <path class="st0" d="M396.02,206.27c13.16,9.65,24.51,21.15,35.46,33.13,11.22,11.65,22.28,23.45,33.13,35.46-12.01-10.84-23.81-21.91-35.46-33.12-11.98-10.95-23.48-22.3-33.12-35.46Z"/>
    <path class="st0" d="M413.53,200.43c15.17,9.97,46.63,45.98,51.08,51.08-4.67-4.07-41.06-35.82-51.08-51.08Z"/>
    <path class="st0" d="M431.39,194.96c10.96,5.66,31.25,30.76,33.21,33.21-3.26-2.62-27.6-22.34-33.21-33.21Z"/>
    <path class="st0" d="M448.9,189.13c5.97,1.17,13.5,12.17,15.72,15.71-1.86-1.16-14.45-9.23-15.72-15.71Z"/>
    <path class="st0" d="M252.36,497.2c-2.41,0-4.82-.38-7.16-1.14l-129.8-42.2c-4.68-1.52-8.68-4.43-11.58-8.41l-80.23-110.42c-2.89-3.98-4.41-8.68-4.41-13.61v-136.5c0-4.91,1.53-9.62,4.43-13.61L103.85,60.88c2.89-3.98,6.9-6.89,11.58-8.41L245.24,10.3c4.68-1.52,9.63-1.52,14.31,0l129.8,42.2c4.68,1.52,8.68,4.43,11.57,8.41l80.23,110.42c2.89,3.98,4.42,8.68,4.41,13.61v136.5c0,4.91-1.53,9.62-4.43,13.61l-80.23,110.4c-2.89,3.98-6.9,6.89-11.58,8.41l-129.82,42.19c-2.34.76-4.75,1.14-7.16,1.14ZM252.39,22.47c-1.02,0-2.05.16-3.04.48l-129.81,42.17c-1.99.65-3.69,1.88-4.92,3.58l-80.23,110.42c-1.24,1.7-1.89,3.7-1.89,5.79v136.51c0,2.1.65,4.1,1.87,5.79l80.23,110.42c1.23,1.69,2.93,2.93,4.92,3.58l129.8,42.2c1.99.65,4.1.65,6.09,0l129.82-42.19c1.99-.65,3.69-1.88,4.92-3.58l80.23-110.4c1.24-1.7,1.89-3.7,1.89-5.79v-136.51c0-2.1-.65-4.1-1.87-5.79l-80.23-110.42c-1.23-1.69-2.93-2.93-4.92-3.58L255.44,22.96c-1-.32-2.02-.49-3.04-.49Z"/>
  </g>
  <g>
    <path class="st0" d="M466.42,471.23H38.97c-8.89,0-17.24-4.75-21.77-12.4-4.53-7.65-4.7-17.25-.43-25.05L227.71,48.46c3.97-7.25,11.25-12.11,19.46-13.01,8.2-.89,16.37,2.29,21.8,8.52l216.51,248.06h0c4.02,4.61,6.24,10.52,6.24,16.64v137.26c0,13.95-11.35,25.31-25.31,25.31ZM249.9,49.85c-.39,0-.77.02-1.16.06-3.49.38-6.59,2.45-8.28,5.53L29.53,440.76c-1.82,3.32-1.75,7.4.18,10.65,1.93,3.25,5.48,5.27,9.26,5.27h427.44c5.93,0,10.76-4.83,10.76-10.76v-137.26c0-2.6-.94-5.12-2.65-7.08L258.01,53.53c-2.05-2.35-5.02-3.69-8.11-3.69Z"/>
    <path class="st0" d="M459.91,443.94c-37.78-58.91-72.42-123.74-104.13-186.28-26.93-51.2-59.5-114.43-85.71-165.9l-12.02-23.82,13.21,23.18c28.4,50.26,63.14,112.39,90.92,163.1,34.62,61.02,69.48,125.64,97.73,189.72h0Z"/>
    <path class="st0" d="M466.8,452.85c-.43-2.47-.31-5.22,8.15-8.15-2.91,8.47-5.74,8.58-8.15,8.15Z"/>
    <path class="st0" d="M458.03,440.19c1.21-6.46,13.08-14.53,16.92-16.92-2.32,3.75-10.38,15.69-16.92,16.92Z"/>
    <path class="st0" d="M448.87,423.85c3.6-9.34,23.74-24.36,26.08-26.08-1.31,1.78-16.61,22.43-26.08,26.08Z"/>
    <path class="st0" d="M440.1,407.11c5.82-11.61,32.25-32.78,34.85-34.85-2.68,3.37-23.31,29.06-34.85,34.85Z"/>
    <path class="st0" d="M431.34,390.38c7.9-13.6,39.27-39.97,43.62-43.62-3.43,4.09-29.97,35.69-43.62,43.62Z"/>
    <path class="st0" d="M422.17,374.04c10.14-15.82,47.44-48.16,52.78-52.78-4.21,4.87-36.86,42.58-52.78,52.78Z"/>
    <path class="st0" d="M413.4,357.3c7.09-10.92,16.2-19.87,25.86-28.41,9.29-8.81,18.74-17.45,28.4-25.86-8.39,9.67-17.04,19.12-25.85,28.41-8.53,9.65-17.48,18.77-28.41,25.86Z"/>
    <path class="st0" d="M404.64,340.57c6.62-10.45,15.27-18.94,24.46-27.01,8.82-8.35,17.81-16.53,27.01-24.46-7.93,9.2-16.11,18.19-24.46,27.01-8.07,9.19-16.56,17.84-27.01,24.46Z"/>
    <path class="st0" d="M395.47,324.23c6.15-9.98,14.33-18.01,23.07-25.62,8.36-7.89,16.88-15.59,25.61-23.07-7.46,8.74-15.18,17.26-23.06,25.62-7.61,8.73-15.63,16.91-25.62,23.07Z"/>
    <path class="st0" d="M386.51,307.69c5.69-9.52,13.4-17.07,21.67-24.22,7.89-7.42,15.95-14.67,24.22-21.67-7,8.27-14.25,16.33-21.67,24.22-7.15,8.27-14.7,15.98-24.22,21.67Z"/>
    <path class="st0" d="M377.74,290.95c5.15-8.98,12.33-16.01,20.08-22.63,7.36-6.89,14.89-13.6,22.63-20.08-6.47,7.74-13.19,15.26-20.08,22.63-6.62,7.74-13.65,14.92-22.63,20.08Z"/>
    <path class="st0" d="M368.97,274.22c4.62-8.44,11.26-14.94,18.48-21.03,6.84-6.35,13.8-12.56,21.03-18.48-5.91,7.23-12.13,14.19-18.48,21.03-6.09,7.22-12.59,13.86-21.03,18.48Z"/>
    <path class="st0" d="M359.81,257.88c4.15-7.97,10.33-14.01,17.09-19.64,6.38-5.89,12.87-11.64,19.64-17.09-5.44,6.77-11.2,13.26-17.09,19.64-5.63,6.76-11.67,12.93-19.64,17.09Z"/>
    <path class="st0" d="M351.04,241.14c3.62-7.43,9.26-12.94,15.5-18.05,5.85-5.36,11.81-10.58,18.05-15.5-4.91,6.23-10.14,12.2-15.49,18.05-5.1,6.24-10.61,11.87-18.05,15.5Z"/>
    <path class="st0" d="M341.88,224.8c4.9-10.68,28.77-29.31,31.15-31.15-2.37,3.07-20.53,26.28-31.15,31.15Z"/>
    <path class="st0" d="M333.11,208.07c4.1-9.87,25.78-26.32,27.96-27.96-2.12,2.82-18.15,23.89-27.96,27.96Z"/>
    <path class="st0" d="M324.34,191.33c3.28-9.02,22.54-23.16,24.77-24.77-1.89,2.61-15.77,21.5-24.77,24.77Z"/>
    <path class="st0" d="M315.18,174.99c2.59-8.36,20.12-20.69,21.98-21.98-1.06,1.54-13.55,19.37-21.98,21.98Z"/>
    <path class="st0" d="M306.41,158.26c1.78-7.5,16.9-17.56,18.79-18.8-.94,1.44-11.18,16.98-18.79,18.8Z"/>
    <path class="st0" d="M297.64,141.52c.92-6.18,12.02-13.47,15.61-15.61-2.1,3.54-9.28,14.67-15.61,15.61Z"/>
    <path class="st0" d="M288.48,125.18c.38-5.57,9.87-11.41,13.22-13.22-1.47,2.74-7.46,12.83-13.22,13.22Z"/>
    <path class="st0" d="M279.71,108.44c-.23-4.67,5.74-8.16,10.03-10.03-1.27,2.95-5.18,10.27-10.03,10.03Z"/>
    <path class="st0" d="M270.94,91.71c-.99-3.83,1.26-5.35,6.84-6.84-.86,3.25-2.99,7.84-6.84,6.84Z"/>
    <path class="st0" d="M261.78,75.37c-1.22-2.52-.99-3.99,4.05-4.05-.04,5.03-1.58,5.25-4.05,4.05Z"/>
    <path class="st0" d="M253.01,58.63c-1.75-2.04-2.14-2.76.87-.87,1.9,3.02,1.16,2.61-.87.87Z"/>
    <path class="st0" d="M52.41,437.66c111.65-.66,235.5-4.47,346.65-.97,7.7.33,15.41.55,23.11.97v.55c-7.7.42-15.41.64-23.11.97-53.81,1.91-107.98,1.78-161.77.94-45.68-.89-140.31-.27-184.88-2.45h0Z"/>
    <path class="st0" d="M250.14,84.24c-27.34,56.68-57.76,112.13-88.83,166.81-27.04,48.47-65.45,117.18-92.66,164.71h0c25.23-48.25,62.66-118.09,88.83-166.81,29.32-55.63,59.65-111.15,92.66-164.71h0Z"/>
  </g>
</svg>